<svg xmlns="http://www.w3.org/2000/svg" direction="ltr" width="406.15" height="194.45811632181733" viewBox="508.7578125 312.180625 406.15 194.45811632181733" stroke-linecap="round" stroke-linejoin="round" data-color-mode="light" class="tl-container tl-theme__force-sRGB tl-theme__light" style="background-color: transparent;"><defs/><g transform="matrix(1, 0, 0, 1, 540.7578, 398.8906)" opacity="1"><g transform="scale(1)"><path d="M-2.8012,-0.3345 T-2.5523,-1.9291 0.3122,-6.3701 7.307,-11.5984 16.7468,-15.6354 28.3415,-18.1735 43.5053,-17.9548 63.4927,-12.5119 85.2242,-2.2038 104.291,10.5327 119.995,24.4633 131.9083,39.6921 138.8627,53.7389 140.4213,64.3549 136.7656,71.9678 127.967,76.1961 112.2834,75.7366 92.5449,70.9195 74.1447,64.0281 56.5106,55.0904 40.2661,44.8116 27.8116,34.7746 20.4034,25.6251 18.679,17.3904 23.477,9.6326 38.5668,2.0348 66.428,-4.981 103.1991,-10.9886 144.2113,-16.4596 190.5922,-22.7373 236.8692,-30.2625 273.5619,-37.6159 300.0224,-44.073 317.9371,-49.1835 333.2884,-53.8282 341.6513,-56.3583 A1.7221,1.7221 0 0 1 342.6487,-53.0617 T334.2858,-50.5315 318.891,-45.8743 300.8522,-40.7312 274.248,-34.2412 237.4274,-26.8643 191.0514,-19.3237 144.6678,-13.0455 103.7585,-7.5903 67.3077,-1.6604 40.2024,5.0026 26.1041,11.5017 21.7915,17.3269 23.169,23.8093 30.0128,32.1407 42.1223,41.9073 58.0648,52.0134 75.3644,60.7992 93.3765,67.5688 112.2819,72.3314 126.62,73.1359 134.1393,70.1235 137.1685,64.3677 135.6758,55.1448 129.108,41.8432 117.598,27.1346 102.2563,13.5611 83.6253,1.162 62.5562,-8.8084 43.5143,-13.9945 29.2977,-14.1022 18.5611,-11.5569 10.237,-7.7918 4.7622,-3.9339 2.8943,-0.9346 2.8012,0.3345 A2.8211,2.8211 0 0 1 -2.8012,-0.3345 Z" stroke-linecap="round" fill="#1d1d1d"/></g></g></svg>